<svg width="952" height="105" viewBox="0 0 952 105" fill="none" xmlns="http://www.w3.org/2000/svg">
<path d="M914.278 104.32C908.653 104.32 903.928 103.304 900.101 101.271C896.321 99.2381 893.485 96.5355 891.595 93.163C889.705 89.7904 888.76 86.1176 888.76 82.1445C888.76 78.079 889.567 74.6141 891.18 71.7498C892.84 68.8393 895.076 66.46 897.888 64.6121C900.747 62.7641 904.043 61.3551 907.777 60.3849C911.558 59.4609 915.73 58.6524 920.294 57.9594C924.905 57.2203 929.4 56.5966 933.78 56.0884C938.205 55.534 942.078 55.0027 945.398 54.4945L941.801 56.7121C941.94 49.3203 940.511 43.8457 937.514 40.2884C934.517 36.7311 929.308 34.9524 921.885 34.9524C916.767 34.9524 912.434 36.1074 908.884 38.4173C905.38 40.7273 902.913 44.377 901.484 49.3665L891.595 46.4559C893.301 39.7571 896.736 34.5597 901.899 30.8638C907.063 27.1679 913.771 25.32 922.023 25.32C928.846 25.32 934.632 26.6135 939.381 29.2007C944.176 31.7416 947.564 35.4375 949.547 40.2884C950.469 42.4597 951.068 44.8852 951.345 47.5647C951.621 50.2442 951.76 52.97 951.76 55.7419V102.241H942.7V83.4612L945.328 84.57C942.793 90.9916 938.851 95.8887 933.503 99.2612C928.155 102.634 921.747 104.32 914.278 104.32ZM915.453 95.5191C920.202 95.5191 924.351 94.6644 927.901 92.9551C931.451 91.2457 934.31 88.9127 936.477 85.9559C938.643 82.953 940.05 79.5805 940.695 75.8384C941.248 73.4361 941.548 70.8027 941.594 67.9384C941.64 65.0279 941.663 62.8565 941.663 61.4244L945.536 63.434C942.078 63.896 938.321 64.358 934.264 64.82C930.253 65.282 926.288 65.8133 922.369 66.4138C918.496 67.0144 914.992 67.7305 911.857 68.5621C909.737 69.1627 907.685 70.0173 905.703 71.1261C903.72 72.1887 902.084 73.6209 900.793 75.4226C899.548 77.2244 898.926 79.465 898.926 82.1445C898.926 84.3159 899.456 86.4179 900.516 88.4507C901.623 90.4834 903.374 92.1697 905.772 93.5095C908.215 94.8492 911.443 95.5191 915.453 95.5191Z" fill="#0071EB"/>
<path d="M845.76 102.32V26.9481H854.709V45.0932L852.946 42.7203C853.76 40.4871 854.822 38.44 856.133 36.5789C857.443 34.6714 858.867 33.1128 860.404 31.9031C862.302 30.1816 864.517 28.8789 867.048 27.9949C869.579 27.0644 872.133 26.5293 874.709 26.3898C877.285 26.2037 879.635 26.3898 881.76 26.9481V36.5789C879.093 35.881 876.178 35.7182 873.014 36.0904C869.85 36.4626 866.935 37.7653 864.268 39.9986C861.828 41.9527 859.997 44.3022 858.777 47.0472C857.556 49.7457 856.743 52.6304 856.336 55.7011C855.929 58.7252 855.726 61.7262 855.726 64.7038V102.32H845.76Z" fill="#0071EB"/>
<path d="M796.999 104.32C790.205 104.32 784.46 102.585 779.764 99.1159C775.068 95.6002 771.511 90.8588 769.094 84.8914C766.678 78.8778 765.47 72.1472 765.47 64.6996C765.47 57.1132 766.678 50.3594 769.094 44.4383C771.557 38.471 775.159 33.7758 779.901 30.3526C784.643 26.9295 790.479 25.2179 797.41 25.2179C804.158 25.2179 809.948 26.9526 814.782 30.422C819.615 33.8914 823.308 38.6098 825.861 44.5771C828.46 50.5445 829.76 57.252 829.76 64.6996C829.76 72.1935 828.46 78.9241 825.861 84.8914C823.262 90.8588 819.524 95.6002 814.645 99.1159C809.766 102.585 803.884 104.32 796.999 104.32ZM763.76 102.238V2.31998H773.882V45.8261H772.788V102.238H763.76ZM795.973 94.8139C801.126 94.8139 805.412 93.4955 808.831 90.8588C812.251 88.222 814.804 84.637 816.491 80.1037C818.224 75.5241 819.09 70.3894 819.09 64.6996C819.09 59.056 818.247 53.9676 816.56 49.4343C814.873 44.9009 812.297 41.3159 808.831 38.6792C805.412 36.0424 801.057 34.7241 795.768 34.7241C790.616 34.7241 786.33 35.9962 782.91 38.5404C779.536 41.0846 777.005 44.6234 775.318 49.1567C773.631 53.6438 772.788 58.8247 772.788 64.6996C772.788 70.4819 773.631 75.6628 775.318 80.2424C777.005 84.7758 779.559 88.3377 782.978 90.9281C786.398 93.5186 790.73 94.8139 795.973 94.8139Z" fill="#0071EB"/>
<path d="M735.461 102.32L735.53 53.0927C735.53 47.3067 733.906 42.7705 730.659 39.4841C727.458 36.1514 723.375 34.485 718.411 34.485C715.581 34.485 712.821 35.133 710.13 36.4291C707.439 37.7251 705.212 39.8081 703.449 42.678C701.733 45.5478 700.875 49.2971 700.875 53.9259L694.82 52.1901C694.681 46.8207 695.725 42.1225 697.952 38.0955C700.225 34.0684 703.333 30.944 707.277 28.7221C711.267 26.454 715.767 25.32 720.777 25.32C728.339 25.32 734.393 27.6575 738.94 32.3326C743.486 36.9614 745.76 43.2334 745.76 51.1487L745.69 102.32H735.461ZM645.76 102.32V27.3335H654.946V45.8024H656.059V102.32H645.76ZM690.715 102.32L690.784 53.7871C690.784 47.8159 689.184 43.1177 685.982 39.6924C682.828 36.2208 678.652 34.485 673.456 34.485C668.26 34.485 664.062 36.2671 660.861 39.8312C657.66 43.3491 656.059 48.0474 656.059 53.9259L649.935 50.5932C649.935 45.7792 651.072 41.4745 653.345 37.6789C655.618 33.837 658.727 30.8282 662.67 28.6527C666.613 26.4309 671.09 25.32 676.101 25.32C680.879 25.32 685.124 26.3383 688.836 28.375C692.593 30.4117 695.539 33.3741 697.673 37.2623C699.808 41.1505 700.875 45.8718 700.875 51.4264L700.805 102.32H690.715Z" fill="#0071EB"/>
<path d="M614.76 12.8131V1.31998H624.76V12.8131H614.76ZM614.76 102.32V27.0924H624.76V102.32H614.76Z" fill="#0071EB"/>
<path d="M563.225 104.32C555.776 104.32 549.414 102.634 544.139 99.2612C538.864 95.8887 534.816 91.2226 531.993 85.263C529.171 79.3033 527.76 72.4659 527.76 64.7507C527.76 56.8969 529.194 50.0133 532.063 44.0998C534.932 38.1864 539.003 33.5896 544.278 30.3094C549.599 26.9831 555.915 25.32 563.225 25.32C570.721 25.32 577.106 27.0062 582.38 30.3787C587.701 33.7051 591.75 38.3481 594.526 44.3077C597.349 50.2212 598.76 57.0355 598.76 64.7507C598.76 72.6045 597.349 79.5112 594.526 85.4709C591.704 91.3843 587.632 96.0042 582.311 99.3305C576.99 102.657 570.628 104.32 563.225 104.32ZM563.225 94.5489C571.553 94.5489 577.754 91.8001 581.825 86.3024C585.897 80.7586 587.933 73.5747 587.933 64.7507C587.933 55.6957 585.874 48.4887 581.756 43.1296C577.684 37.7706 571.507 35.091 563.225 35.091C557.626 35.091 553 36.3615 549.344 38.9024C545.735 41.3972 543.029 44.8852 541.224 49.3665C539.466 53.8016 538.587 58.9296 538.587 64.7507C538.587 73.7595 540.669 80.9896 544.833 86.441C548.997 91.8463 555.128 94.5489 563.225 94.5489Z" fill="#0071EB"/>
<path d="M472.98 104.32C462.988 104.32 454.552 102.124 447.674 97.7333C440.795 93.296 435.59 87.1715 432.058 79.36C428.526 71.5484 426.76 62.5351 426.76 52.32C426.76 42.1049 428.526 33.0915 432.058 25.28C435.59 17.4684 440.795 11.3671 447.674 6.97597C454.552 2.53864 462.988 0.319977 472.98 0.319977C484.645 0.319977 494.173 3.30131 501.562 9.26397C508.952 15.1804 514.018 23.1306 516.76 33.1146L506.303 35.8186C504.165 27.9146 500.331 21.6515 494.8 17.0293C489.269 12.4071 481.996 10.096 472.98 10.096C465.125 10.096 458.596 11.8755 453.39 15.4346C448.185 18.9938 444.258 23.9626 441.609 30.3413C439.006 36.6738 437.658 44 437.565 52.32C437.519 60.64 438.797 67.9662 441.4 74.2986C444.049 80.6311 447.999 85.6 453.251 89.2053C458.549 92.7644 465.125 94.544 472.98 94.544C481.996 94.544 489.269 92.2329 494.8 87.6107C500.331 82.9422 504.165 76.6791 506.303 68.8213L516.76 71.5253C514.018 81.5093 508.952 89.4826 501.562 95.4453C494.173 101.362 484.645 104.32 472.98 104.32Z" fill="#0071EB"/>
<path d="M392.374 0V102.4H373.814V0H392.374Z" fill="black"/>
<path d="M360.598 73.472C355.35 91.52 338.71 104.832 318.998 104.832C294.934 104.832 275.35 85.248 275.35 61.184C275.35 37.248 294.934 17.792 318.998 17.792C341.142 17.792 365.334 36.352 362.006 67.328H295.19C297.622 79.488 307.478 88.192 318.998 88.192C328.342 88.192 336.662 82.432 340.63 73.472H360.598ZM295.958 51.968L341.654 51.84C338.326 41.344 329.366 34.432 318.998 34.432C308.502 34.432 299.414 41.472 295.958 51.968Z" fill="black"/>
<path d="M265.113 61.44C265.113 85.376 246.937 104.832 222.873 104.832C198.809 104.832 179.225 85.376 179.225 61.44C179.225 37.376 198.809 17.792 220.313 17.792C231.961 17.792 242.841 23.808 246.553 28.416V0H265.113V61.44ZM198.425 61.44C198.425 76.672 209.561 88.192 222.873 88.192C236.185 88.192 247.321 76.672 247.321 61.44C247.321 46.08 236.185 34.432 222.873 34.432C209.561 34.432 198.425 46.08 198.425 61.44Z" fill="black"/>
<path d="M150.428 94.208C146.716 98.816 135.836 104.832 124.188 104.832C102.684 104.832 83.0996 85.248 83.0996 61.184C83.0996 37.248 102.684 17.792 126.748 17.792C150.812 17.792 168.988 37.248 168.988 61.184V102.4H150.428V94.208ZM102.3 61.184C102.3 76.544 113.436 88.192 126.748 88.192C140.06 88.192 151.196 76.544 151.196 61.184C151.196 45.952 140.06 34.432 126.748 34.432C113.436 34.432 102.3 45.952 102.3 61.184Z" fill="black"/>
<path d="M42.112 0C62.592 0 77.952 14.208 77.952 33.28C77.952 52.352 62.592 66.56 42.112 66.56H18.56V102.4H0V0H42.112ZM18.56 49.92H42.112C51.584 49.92 58.752 42.752 58.752 33.28C58.752 23.808 51.584 16.64 42.112 16.64H18.56V49.92Z" fill="black"/>
</svg>
